<svg width="33" height="33" viewBox="0 0 33 33" fill="none" xmlns="http://www.w3.org/2000/svg">
<path d="M0.191895 8.17169V0.191895H8.17169V3.38381H3.38381V8.17169H0.191895ZM0.191895 32.1111V24.1313H3.38381V28.9192H8.17169V32.1111H0.191895ZM24.1313 32.1111V28.9192H28.9192V24.1313H32.1111V32.1111H24.1313ZM28.9192 8.17169V3.38381H24.1313V0.191895H32.1111V8.17169H28.9192ZM24.9293 24.9293H27.3232V27.3232H24.9293V24.9293ZM24.9293 20.1414H27.3232V22.5353H24.9293V20.1414ZM22.5353 22.5353H24.9293V24.9293H22.5353V22.5353ZM20.1414 24.9293H22.5353V27.3232H20.1414V24.9293ZM17.7474 22.5353H20.1414V24.9293H17.7474V22.5353ZM22.5353 17.7474H24.9293V20.1414H22.5353V17.7474ZM20.1414 20.1414H22.5353V22.5353H20.1414V20.1414ZM17.7474 17.7474H20.1414V20.1414H17.7474V17.7474ZM27.3232 4.97977V14.5555H17.7474V4.97977H27.3232ZM14.5555 17.7474V27.3232H4.97977V17.7474H14.5555ZM14.5555 4.97977V14.5555H4.97977V4.97977H14.5555ZM12.1616 24.9293V20.1414H7.37371V24.9293H12.1616ZM12.1616 12.1616V7.37371H7.37371V12.1616H12.1616ZM24.9293 12.1616V7.37371H20.1414V12.1616H24.9293Z" fill="currentColor"/>
</svg>
